<svg width="377" height="606" viewBox="0 0 377 606" fill="none" xmlns="http://www.w3.org/2000/svg">
<g clip-path="url(#clip0_123_106)">
<path fill-rule="evenodd" clip-rule="evenodd" d="M272.249 211.399C278.954 211.399 285.544 208.157 289.593 202.156C296.101 192.488 293.615 179.356 284.062 172.79L215.086 125.472C198.915 114.904 178.086 114.876 161.55 125.726L92.9384 172.79C83.3845 179.356 80.8995 192.488 87.4067 202.156C93.9141 211.822 106.956 214.329 116.505 207.735L184.731 160.953C187.018 159.459 190.01 159.431 191.878 160.671L260.494 207.735C264.094 210.216 268.198 211.399 272.249 211.399ZM272.249 324.127C278.954 324.127 285.544 320.885 289.593 314.881C296.101 305.216 293.615 292.083 284.062 285.517L215.086 238.2C198.915 227.631 178.086 227.602 161.55 238.453L92.9384 285.517C83.3845 292.083 80.8995 305.216 87.4067 314.881C93.9141 324.549 106.956 327.028 116.505 320.462L184.731 273.681C187.018 272.158 190.01 272.187 191.878 273.399L260.494 320.462C264.094 322.943 268.198 324.127 272.249 324.127ZM215.757 8.51807L355.385 104.392C368.928 113.692 377 129.164 377 145.791V460.159C377 476.814 368.928 492.286 355.385 501.586L215.757 597.433C207.488 603.154 197.995 606 188.5 606C179.006 606 169.484 603.154 161.187 597.404L21.5882 501.586C8.072 492.286 0 476.814 0 460.159V145.791C0 129.164 8.072 113.692 21.5882 104.392L161.214 8.51807C177.777 -2.83936 199.195 -2.83936 215.757 8.51807ZM188.5 473.438C209.32 473.438 226.2 456.481 226.2 435.562C226.2 414.644 209.32 397.688 188.5 397.688C167.68 397.688 150.8 414.644 150.8 435.562C150.8 456.481 167.68 473.438 188.5 473.438Z" fill="white"/>
</g>
<defs>
<clipPath id="clip0_123_106">
<rect width="377" height="606" fill="white"/>
</clipPath>
</defs>
</svg>
